<?xml version="1.0" standalone="no"?>
<!DOCTYPE svg PUBLIC "-//W3C//DTD SVG 20010904//EN"
 "http://www.w3.org/TR/2001/REC-SVG-20010904/DTD/svg10.dtd">
<svg version="1.0" xmlns="http://www.w3.org/2000/svg"
 width="400.000000pt" height="400.000000pt" viewBox="0 0 400.000000 400.000000"
 preserveAspectRatio="xMidYMid meet">

<g transform="translate(0.000000,400.000000) scale(0.100000,-0.100000)"
fill="#000000" stroke="none">
<path d="M2538 3990 c-61 -18 -101 -55 -178 -164 -44 -61 -112 -146 -152 -188
l-73 -78 -75 26 c-102 35 -176 42 -224 19 -20 -10 -69 -53 -107 -95 l-71 -78
-56 15 c-35 9 -79 13 -114 10 -62 -5 -168 -50 -226 -94 -38 -29 -94 -102 -87
-113 3 -5 47 5 97 21 51 16 95 29 97 29 3 0 -9 -15 -26 -32 -32 -35 -63 -88
-63 -110 0 -7 5 -20 10 -28 8 -12 13 -11 37 11 15 15 42 35 58 45 l30 19 -18
-25 c-32 -47 -41 -75 -41 -145 -1 -64 1 -70 19 -67 11 1 71 9 134 18 128 17
162 14 154 -15 -4 -14 2 -20 28 -25 47 -9 59 -23 59 -70 0 -58 -12 -73 -45
-58 -47 21 -91 15 -130 -20 -47 -40 -75 -97 -82 -162 -5 -49 -4 -54 27 -79 25
-22 41 -27 83 -27 29 1 69 7 90 14 20 8 37 12 37 11 0 -1 -7 -22 -15 -45 -8
-24 -24 -95 -35 -158 -11 -64 -21 -116 -23 -117 -9 -8 -47 -25 -55 -25 -4 0
-16 26 -26 58 -52 167 -150 262 -190 185 -7 -16 -17 -42 -20 -59 -5 -22 -16
-35 -38 -45 -30 -13 -38 -27 -52 -89 -4 -18 -16 -30 -39 -38 -19 -7 -77 -48
-130 -92 -52 -44 -102 -80 -111 -80 -8 0 -22 -10 -31 -22 -13 -19 -31 -25
-111 -35 -52 -6 -117 -19 -145 -28 -52 -18 -58 -30 -39 -80 9 -23 6 -28 -23
-45 -37 -23 -50 -21 -56 6 -6 31 -41 74 -61 74 -10 0 -29 -14 -43 -31 -23 -30
-25 -31 -66 -18 -59 17 -67 6 -91 -131 -12 -63 -26 -135 -32 -159 -12 -47 -7
-46 -101 -25 -35 8 -36 -10 -2 -77 29 -56 57 -72 119 -67 38 3 41 5 51 47 7
30 21 53 45 72 19 16 37 29 41 29 4 0 1 -20 -6 -44 -8 -25 -21 -118 -30 -208
-10 -109 -22 -176 -34 -203 -19 -41 -41 -157 -41 -216 0 -18 7 -40 15 -49 14
-16 10 -18 -53 -23 -69 -7 -173 -37 -198 -58 -24 -20 -16 -48 19 -66 51 -28
229 -23 392 11 113 24 138 26 195 17 36 -6 124 -9 195 -9 129 2 131 2 225 -36
135 -54 267 -95 325 -102 41 -5 55 -3 75 14 l25 20 -21 28 c-26 35 -82 64
-164 85 l-65 17 2 41 c2 22 0 41 -5 41 -4 0 -13 4 -19 8 -24 15 61 282 138
434 16 31 29 73 29 92 0 22 6 38 17 44 12 7 16 22 15 52 -2 35 1 41 14 36 9
-3 17 -6 19 -6 2 0 2 -22 -2 -48 -4 -37 -2 -51 11 -61 9 -7 16 -23 16 -35 1
-57 59 -72 131 -35 l40 20 50 -31 c27 -18 49 -35 49 -38 0 -3 -10 -16 -22 -29
-32 -34 -28 -77 11 -117 32 -33 33 -34 16 -60 -10 -14 -19 -26 -21 -26 -2 0
-18 9 -36 20 -18 11 -45 20 -60 20 -35 0 -43 -27 -35 -127 6 -81 20 -109 40
-82 49 63 58 72 68 62 8 -8 4 -21 -15 -46 -14 -18 -26 -37 -26 -40 0 -11 81
-8 122 3 40 11 78 51 78 81 0 10 -13 25 -30 34 -35 18 -36 25 -12 55 18 22 22
22 66 11 60 -15 99 1 104 42 3 23 8 27 36 27 48 0 72 29 57 71 -6 18 -11 33
-11 34 0 2 14 8 30 15 55 23 50 88 -11 124 -16 9 -29 21 -29 25 0 4 15 25 34
47 l33 39 51 -24 c41 -19 54 -22 66 -12 29 24 32 181 5 221 -8 12 -15 9 -37
-19 -62 -79 -60 -77 -74 -63 -11 11 -8 22 15 63 15 27 27 51 27 53 0 8 -145
-36 -168 -50 -21 -14 -22 -16 -6 -47 9 -18 25 -42 36 -53 20 -22 20 -22 -10
-55 l-30 -33 -39 27 c-48 33 -94 48 -115 36 -9 -5 -24 -38 -33 -73 l-18 -65
-31 16 c-60 30 -66 40 -50 80 22 53 15 87 -18 91 -15 2 -34 13 -42 24 -12 17
-21 19 -59 14 -42 -6 -47 -5 -93 37 -47 43 -48 45 -46 98 3 61 22 149 33 149
4 0 10 -8 13 -17 13 -33 28 5 35 84 l6 78 46 3 c42 3 49 0 68 -27 59 -83 154
-93 254 -27 46 30 60 35 76 27 19 -11 19 -11 -2 -51 l-22 -41 25 -21 c14 -11
24 -28 22 -38 -8 -51 67 -49 146 4 l50 33 54 -31 c91 -51 92 -53 63 -88 -16
-19 -25 -42 -25 -63 0 -40 29 -64 107 -90 50 -16 52 -19 51 -51 -1 -29 -5 -34
-24 -34 -25 0 -27 -6 -39 -89 -8 -60 -13 -66 -40 -41 -28 26 -40 21 -49 -21
-5 -27 -9 -30 -33 -25 -16 3 -35 2 -43 -4 -12 -8 -10 -10 10 -9 14 0 35 -2 47
-6 19 -6 23 -2 28 29 8 42 11 43 41 15 12 -12 27 -18 32 -15 6 3 16 38 22 76
19 110 46 109 52 -3 4 -66 3 -68 -18 -63 -26 7 -43 -16 -68 -92 -10 -29 -21
-52 -24 -50 -63 32 -64 32 -72 18 -23 -39 -36 -51 -53 -44 -11 4 -16 13 -12
24 8 24 -23 35 -45 15 -20 -18 -36 -69 -46 -143 -6 -48 -5 -52 14 -52 11 0 22
8 25 20 5 20 6 20 42 3 l37 -18 27 32 c24 29 31 32 64 26 35 -5 37 -4 59 41
24 50 32 54 66 30 15 -11 22 -25 22 -50 0 -40 -6 -42 -36 -13 -12 12 -27 18
-32 15 -5 -3 -12 -33 -14 -66 -3 -39 -10 -67 -21 -77 -9 -10 -17 -12 -17 -7 0
6 -11 23 -25 38 -26 28 -46 27 -44 -2 0 -12 2 -13 6 -4 4 10 15 4 39 -19 32
-31 35 -32 51 -16 11 10 18 38 21 77 2 33 8 60 11 60 4 0 19 -12 33 -27 24
-25 27 -38 32 -136 6 -106 6 -107 -16 -107 -13 -1 -39 -14 -58 -30 -44 -38
-96 -41 -109 -8 -11 28 10 48 51 48 16 0 28 5 28 13 -1 15 -39 66 -40 51 0 -6
7 -17 15 -24 20 -17 10 -30 -24 -30 -57 0 -72 -59 -21 -85 39 -20 45 -19 114
15 66 33 76 29 76 -27 0 -29 -4 -33 -32 -37 -308 -46 -436 -76 -445 -102 -9
-28 27 -42 124 -49 149 -9 180 -30 96 -61 -69 -25 -79 -36 -59 -65 9 -13 16
-27 16 -31 0 -4 -38 -18 -84 -32 -88 -27 -118 -48 -98 -68 14 -14 142 -12 449
7 232 14 276 24 281 61 4 27 -26 47 -114 73 -88 26 -113 43 -96 64 22 26 76
35 397 67 156 16 201 34 184 77 -9 25 -9 26 30 19 37 -6 44 -3 101 46 34 29
94 79 133 111 159 129 168 138 162 158 -11 32 -23 382 -15 410 6 19 3 31 -7
42 -13 13 -14 27 -4 103 19 144 109 582 138 671 14 46 24 86 20 89 -7 7 -261
66 -364 84 -46 8 -118 11 -201 8 l-129 -6 -27 35 c-64 80 -152 119 -334 148
-100 16 -192 41 -192 53 0 4 13 16 30 27 60 40 87 172 44 216 -23 22 -80 35
-117 25 -29 -7 -85 -61 -98 -94 l-9 -23 -28 21 c-15 11 -38 29 -51 39 -37 27
-23 81 36 135 120 110 116 104 110 141 -5 33 -5 35 16 23 117 -61 339 -233
498 -386 60 -58 112 -102 116 -99 10 10 -36 138 -68 191 -17 26 -28 51 -25 54
10 10 260 -252 296 -310 33 -54 60 -74 60 -45 0 38 -48 176 -95 272 -67 137
-117 213 -199 302 -72 77 -248 219 -315 253 l-44 22 39 31 c83 67 165 171 228
291 32 60 34 125 6 171 -51 82 -279 149 -392 115z m130 -26 c12 -4 22 -11 22
-16 0 -5 -6 -6 -12 -1 -7 4 -35 10 -63 14 -48 6 -48 6 -10 7 22 1 50 -1 63 -4z
m-88 -15 c25 -8 25 -9 -3 -5 -18 2 -27 -1 -24 -8 3 -7 -5 -12 -17 -13 -11 0
-15 1 -8 4 6 3 12 9 12 14 0 4 -7 5 -17 2 -11 -4 -14 -3 -9 5 8 14 30 14 66 1z
m147 5 c-3 -3 -12 -4 -19 -1 -8 3 -5 6 6 6 11 1 17 -2 13 -5z m-57 -19 c0 -2
-6 -5 -13 -8 -8 -3 -14 1 -14 8 0 7 6 11 14 8 7 -3 13 -6 13 -8z m107 3 c30
-12 38 -15 52 -17 5 0 26 -17 47 -37 22 -20 32 -32 23 -25 -9 6 -20 7 -24 3
-5 -4 -5 -1 -1 6 4 6 3 12 -2 12 -15 0 -22 -13 -13 -24 6 -7 1 -11 -17 -12
-15 -1 -21 1 -14 3 6 3 12 11 12 18 0 7 5 15 11 17 7 2 4 10 -7 18 -10 8 -15
10 -11 4 4 -6 -3 -20 -16 -30 -17 -15 -19 -15 -8 -2 7 9 10 22 6 28 -11 18
-63 40 -82 34 -15 -5 -16 -4 -3 5 18 13 13 13 47 -1z m-313 -35 c-30 -32 -32
-38 -17 -48 14 -11 14 -12 -3 -10 -10 0 -21 5 -23 9 -4 9 57 86 69 86 4 0 -7
-16 -26 -37z m241 27 c-3 -5 -12 -10 -18 -10 -7 0 -6 4 3 10 19 12 23 12 15 0z
m-88 -6 c-3 -3 -12 -4 -19 -1 -8 3 -5 6 6 6 11 1 17 -2 13 -5z m307 -123 c-11
-57 -15 -68 -27 -68 -8 0 -14 6 -14 13 0 7 6 10 14 7 7 -3 13 0 13 6 0 6 -8
12 -17 12 -17 1 -17 2 0 6 16 4 21 19 18 53 -2 12 0 13 7 1 5 -7 8 -21 6 -30z
m-547 -19 c-23 -25 -22 -39 1 -19 17 15 18 15 19 -4 2 -26 -32 -84 -41 -70 -4
6 -12 11 -17 11 -6 0 -7 -6 -3 -12 6 -10 4 -10 -8 0 -14 11 -19 9 -37 -14 -12
-15 -23 -25 -26 -22 -3 2 9 17 25 33 17 16 30 25 30 20 0 -4 9 0 20 10 11 10
20 23 20 28 0 6 -10 2 -22 -9 -24 -22 -18 -7 20 44 14 18 27 30 30 27 3 -3 -2
-13 -11 -23z m-65 -114 c-13 -13 -16 -32 -4 -24 4 2 8 -4 8 -14 0 -10 -4 -17
-7 -14 -4 2 -11 -1 -15 -7 -4 -8 -9 -7 -15 2 -14 23 -10 32 8 18 15 -12 16
-12 10 5 -7 17 7 46 21 46 3 0 1 -5 -6 -12z m561 -3 c-18 -31 -25 -35 -41 -23
-13 11 -15 10 -9 -4 9 -25 0 -22 -14 3 -13 26 -4 34 39 34 18 1 28 -3 25 -10z
m-609 -51 c5 -14 4 -15 -7 -5 -11 9 -17 8 -26 -3 -7 -9 -8 -17 -2 -20 5 -3 12
0 14 6 4 10 6 10 6 1 1 -7 -8 -17 -19 -23 -11 -6 -17 -16 -14 -25 4 -8 2 -15
-4 -15 -11 0 -10 25 1 36 15 15 6 26 -10 13 -10 -7 -5 1 11 19 34 36 41 39 50
16z m554 -30 c-12 -12 -17 -13 -23 -3 -5 8 -4 10 4 5 6 -4 14 0 17 9 4 9 9 13
12 10 3 -3 -1 -13 -10 -21z m-62 1 c-3 -8 -1 -15 3 -15 5 0 11 5 13 10 2 6 8
2 15 -9 10 -16 8 -22 -14 -42 -15 -13 -23 -19 -20 -12 4 6 4 13 0 16 -5 2 -3
2 4 1 14 -3 36 20 27 29 -3 3 -12 3 -19 1 -7 -3 -16 0 -20 5 -3 6 -12 8 -18 4
-7 -4 -6 0 2 10 17 21 35 22 27 2z m-711 -20 l70 -23 -75 -1 c-78 -1 -208 -29
-260 -56 -16 -8 -40 -29 -52 -45 -14 -19 -25 -27 -31 -21 -11 11 66 106 117
147 42 32 133 32 231 -1z m139 -13 c3 -5 -1 -9 -9 -9 -8 0 -12 4 -9 9 3 4 7 8
9 8 2 0 6 -4 9 -8z m87 -19 c13 -16 12 -17 -3 -5 -9 8 -23 10 -29 6 -8 -4 -9
-3 -5 4 10 17 21 15 37 -5z m109 -31 c3 -3 -8 -2 -25 2 -16 4 -34 12 -40 17
-5 5 6 4 25 -2 19 -7 37 -14 40 -17z m150 -1 c28 -13 -1 -9 -34 5 -12 4 -17 4
-13 -3 3 -5 0 -10 -8 -10 -8 0 -12 4 -9 9 6 10 1 10 -20 2 -9 -3 -13 -10 -10
-15 3 -5 1 -9 -4 -9 -13 0 -33 25 -27 32 10 9 99 1 125 -11z m194 10 c23 -2
-57 -62 -81 -61 -4 1 9 10 30 21 20 11 37 24 37 30 0 8 -5 7 -15 -1 -11 -9
-15 -9 -15 -1 0 8 -5 9 -18 2 -13 -7 -19 -6 -19 2 0 11 28 13 81 8z m-564 -8
c0 -5 23 -9 52 -10 35 -1 54 -7 60 -17 5 -9 17 -16 26 -15 14 0 13 2 -3 9 -19
8 -19 9 3 9 12 1 22 -4 22 -10 0 -5 4 -8 9 -4 14 8 172 -45 166 -56 -4 -5 -14
-9 -23 -9 -15 0 -15 2 -2 11 13 8 12 10 -3 7 -31 -5 -20 -21 24 -35 28 -10 45
-11 52 -4 7 7 2 8 -14 5 -20 -5 -21 -4 -9 6 12 9 10 10 -10 5 -20 -5 -22 -4
-8 5 17 11 52 -1 175 -62 46 -22 64 -38 72 -59 5 -16 16 -29 23 -29 8 -1 5 -6
-6 -15 -19 -15 -19 -15 3 -15 12 0 19 4 16 10 -3 6 -1 10 4 10 15 0 14 -27 -1
-33 -8 -3 -6 -6 5 -6 26 -1 21 30 -10 55 -16 12 -26 25 -23 28 3 3 26 -13 50
-36 25 -22 38 -35 29 -29 -12 8 -16 7 -16 -3 0 -9 8 -13 24 -10 15 3 26 -1 29
-11 4 -8 13 -15 21 -15 8 0 11 -4 8 -10 -3 -5 0 -10 8 -10 24 0 168 -166 205
-237 9 -16 9 -24 0 -29 -7 -5 -8 -3 -3 6 5 9 4 11 -4 6 -15 -10 -3 -29 15 -22
17 7 39 -30 24 -39 -6 -4 -10 -16 -8 -28 2 -14 -2 -21 -10 -19 -8 1 -11 -2 -7
-7 3 -6 13 -7 23 -4 14 6 15 4 4 -9 -10 -13 -10 -18 -1 -24 7 -4 9 -3 5 4 -13
21 9 20 35 -1 24 -21 75 -124 66 -134 -3 -2 -25 22 -50 54 -58 76 -224 234
-293 280 -54 36 -68 51 -38 39 10 -4 13 -2 8 6 -5 7 -1 9 13 6 13 -4 24 2 33
16 10 17 10 19 -1 9 -7 -7 -22 -13 -34 -13 -15 0 -17 2 -6 9 9 6 10 11 2 15
-6 4 -11 2 -11 -4 0 -6 -4 -9 -9 -5 -5 3 -12 1 -16 -5 -4 -6 -12 -8 -18 -4 -7
3 -4 -1 6 -9 16 -13 16 -15 1 -21 -9 -3 -20 -3 -25 0 -5 3 -9 2 -8 -3 4 -23
-2 -42 -13 -39 -7 1 -9 1 -5 -2 4 -2 3 -10 -4 -18 -9 -11 -15 -11 -25 -3 -8 6
-11 16 -7 22 3 5 1 7 -5 3 -6 -3 -16 -1 -24 6 -7 7 -31 25 -54 40 -39 25 -41
29 -39 71 l1 46 -26 -14 c-24 -12 -27 -12 -40 8 -8 12 -13 32 -11 45 3 27 -9
28 -40 3 -20 -17 -22 -22 -10 -33 12 -11 13 -10 8 3 -3 9 3 20 14 27 21 13 26
3 7 -16 -9 -9 -9 -12 1 -12 7 0 10 -4 7 -8 -3 -5 4 -16 15 -25 15 -13 24 -15
39 -7 25 14 25 14 25 -20 1 -17 -2 -29 -5 -28 -3 2 -49 32 -103 67 -63 42 -93
67 -85 72 7 4 16 5 20 3 4 -3 8 -1 8 4 0 6 -11 9 -24 8 -13 0 -22 -4 -19 -8 9
-15 -14 -7 -76 26 -44 23 -58 35 -47 39 9 4 22 5 29 3 6 -1 8 -1 3 2 -4 2 -3
8 4 12 6 4 -2 7 -18 6 -17 -1 -28 -4 -25 -8 2 -5 0 -8 -6 -8 -5 0 -11 3 -14 8
-2 4 -2 1 -1 -5 4 -17 6 -17 -69 16 -86 39 -112 42 -112 16 0 -11 -7 -26 -15
-33 -13 -11 -13 -12 0 -10 8 2 18 7 21 12 9 12 24 1 49 -34 l20 -28 -59 26
c-33 14 -57 30 -54 36 3 5 1 6 -6 2 -6 -4 -37 0 -69 10 -31 9 -64 18 -72 19
-8 1 -42 7 -74 14 -33 6 -61 11 -63 11 -10 0 -1 -40 12 -50 8 -7 13 -16 10
-20 -3 -5 0 -12 6 -16 8 -4 9 -3 5 4 -12 20 10 13 30 -9 l19 -21 -38 7 c-35 7
-37 6 -37 -20 0 -20 -4 -26 -15 -21 -8 3 -15 0 -15 -6 0 -6 -12 -8 -32 -4 -26
4 -29 3 -15 -5 10 -6 25 -9 35 -7 22 4 71 -106 77 -172 3 -41 1 -46 -16 -45
-11 1 -29 16 -40 34 -12 19 -24 29 -31 25 -8 -5 -5 -10 8 -15 16 -7 15 -8 -7
-8 -20 -1 -25 4 -25 22 1 19 -5 22 -41 25 -24 2 -43 7 -43 13 0 5 -5 9 -11 9
-5 0 -8 -4 -4 -9 7 -12 -15 -18 -95 -26 -36 -3 -77 -8 -92 -11 -27 -5 -28 -4
-28 40 0 25 4 46 9 46 5 0 7 10 4 23 -3 16 -2 18 5 8 8 -11 11 -11 18 0 4 7 3
14 -4 17 -8 2 -5 16 8 42 15 29 25 38 38 34 10 -4 13 -2 7 3 -13 10 -16 43 -4
43 5 0 8 5 7 11 -2 6 3 14 11 17 9 3 11 0 6 -7 -5 -9 -1 -9 14 1 22 13 23 30
3 34 -7 1 -8 0 -2 -3 5 -2 7 -9 4 -14 -3 -6 -11 -6 -20 2 -7 6 -11 15 -8 20 3
5 0 9 -6 9 -7 0 -9 -8 -5 -21 5 -16 4 -19 -5 -14 -8 5 -11 4 -6 -3 6 -11 -29
-41 -96 -81 -23 -14 -38 -18 -38 -11 0 16 109 122 120 115 13 -8 19 22 7 35
-10 10 -7 10 13 1 l25 -12 -24 20 c-12 12 -27 19 -31 16 -5 -3 -11 -1 -14 3
-3 5 6 14 21 21 14 6 23 14 20 17 -6 7 -57 -24 -74 -45 -8 -9 -13 -10 -13 -3
0 7 -7 12 -15 12 -8 0 -15 -5 -15 -11 0 -5 5 -7 12 -3 7 4 8 3 4 -4 -4 -7 -1
-12 9 -12 8 0 18 7 21 15 4 8 11 15 16 15 6 0 8 -7 5 -14 -4 -11 -1 -13 11 -9
9 3 14 3 11 -1 -8 -8 -53 -17 -96 -19 -17 0 -29 -5 -26 -11 3 -5 1 -6 -5 -2
-7 4 -12 3 -12 -2 0 -5 -16 -14 -36 -20 -32 -9 -34 -9 -22 5 21 26 148 104
159 98 5 -4 9 -2 9 4 0 12 65 31 100 30 23 -2 24 -2 3 -6 -13 -2 -23 -8 -23
-13 0 -10 28 -3 47 13 7 5 29 6 50 2 35 -7 36 -8 16 -16 -34 -13 -27 -19 9 -8
24 7 45 4 83 -10 27 -10 56 -16 64 -13 9 3 11 0 6 -8 -5 -8 -4 -11 3 -7 5 4 8
16 5 27 -5 19 -6 20 -19 3 -7 -10 -14 -13 -14 -8 0 13 55 62 92 81 16 8 39 12
55 8 22 -4 25 -3 13 6 -12 9 -4 10 35 7 28 -2 41 -2 30 1 -13 4 -3 8 30 13 74
9 175 10 175 2z m405 -32 c3 -5 1 -12 -5 -16 -6 -4 -8 -11 -5 -16 3 -5 -2 -6
-11 -2 -16 6 -16 7 0 19 16 11 16 13 -1 17 -15 4 -16 5 -1 6 9 0 19 -3 23 -8z
m125 -26 c-7 -9 -15 -13 -19 -10 -3 3 1 10 9 15 21 14 24 12 10 -5z m-35 -14
c3 -5 2 -12 -3 -15 -5 -3 -9 1 -9 9 0 17 3 19 12 6z m-28 -18 c0 -8 -6 -9 -19
-2 -10 5 -18 11 -18 12 0 2 8 3 18 3 10 0 19 -6 19 -13z m-530 -125 c-3 -8 -6
-5 -6 6 -1 11 2 17 5 13 3 -3 4 -12 1 -19z m-147 -43 c52 -14 132 -43 177 -66
45 -23 87 -39 93 -37 7 2 -3 25 -25 57 -44 63 -43 63 108 -7 l97 -45 0 -37 c0
-33 -7 -43 -70 -100 -71 -63 -100 -103 -100 -139 0 -16 -7 -19 -49 -18 -84 3
-118 -57 -70 -124 27 -39 116 -89 157 -89 17 0 32 -4 32 -9 0 -28 -110 -28
-159 0 -36 21 -36 21 -13 0 23 -20 80 -41 113 -41 10 0 43 14 74 30 52 27 60
29 75 15 9 -8 32 -18 51 -21 19 -4 66 -17 104 -29 39 -13 108 -31 153 -40 177
-35 267 -83 330 -174 34 -50 37 -59 37 -126 0 -69 -2 -76 -40 -131 -53 -76
-113 -108 -204 -108 -144 -1 -235 83 -442 408 -53 82 -76 98 -39 26 l22 -42
-45 -67 c-72 -108 -162 -215 -254 -300 -165 -153 -263 -154 -338 -5 -29 57
-30 64 -29 199 0 121 4 154 27 240 15 55 35 106 44 113 15 11 15 12 -1 12 -10
0 -49 -10 -87 -21 -105 -32 -169 -11 -169 56 0 90 68 185 133 185 45 0 93 -32
117 -80 11 -22 24 -40 29 -40 5 0 20 26 32 58 30 76 31 220 2 304 -12 35 -16
61 -11 66 6 6 4 21 -6 40 l-15 30 37 -9 c20 -5 40 -9 45 -9 17 0 5 32 -24 65
-39 44 -31 45 101 10z m925 -225 c3 -5 1 -10 -4 -10 -6 0 -11 5 -11 10 0 6 2
10 4 10 3 0 8 -4 11 -10z m32 -125 c25 -37 30 -52 23 -66 -7 -12 -6 -20 2 -25
6 -4 8 -3 4 4 -3 6 -2 13 3 16 9 6 81 -112 81 -134 0 -12 -137 139 -140 155
-4 20 -21 45 -32 45 -7 0 -6 -5 2 -15 23 -27 -5 -16 -33 14 -24 26 -26 31 -12
44 8 9 15 22 15 30 0 25 24 26 40 2 8 -12 29 -43 47 -70z m-1094 -32 c-7 -2
-19 -2 -25 0 -7 3 -2 5 12 5 14 0 19 -2 13 -5z m741 -24 c34 -40 34 -89 0
-146 -26 -45 -55 -63 -102 -63 -39 0 -74 27 -67 50 3 11 -1 32 -9 49 -19 35
-11 65 25 97 61 55 114 59 153 13z m629 -34 c22 -46 21 -52 -3 -30 -11 10 -17
21 -15 26 3 4 1 10 -5 14 -12 7 -13 25 -2 25 5 0 16 -16 25 -35z m-1380 18
c-7 -2 -19 -2 -25 0 -7 3 -2 5 12 5 14 0 19 -2 13 -5z m462 -17 c123 -57 140
-156 28 -156 -58 0 -103 22 -148 71 -36 40 -44 76 -23 97 19 19 89 14 143 -12z
m-465 -22 c0 -2 -9 -4 -20 -4 -11 0 -20 4 -20 9 0 5 9 7 20 4 11 -3 20 -7 20
-9z m675 -564 c8 -9 15 -61 19 -135 4 -66 9 -134 12 -152 5 -27 3 -32 -18 -35
-17 -2 -24 -10 -26 -30 -2 -16 -5 -28 -8 -28 -2 0 -29 16 -58 36 l-54 36 25
54 c32 70 28 88 -19 92 -20 2 -42 10 -48 18 -17 20 -69 17 -115 -6 -56 -29
-61 -25 -25 18 100 119 151 186 180 236 l32 57 45 -73 c25 -40 50 -80 58 -88z
m858 150 c3 -3 -8 -59 -24 -125 -30 -124 -47 -276 -69 -620 -12 -181 -9 -498
6 -812 l6 -123 -311 -1 c-171 -1 -317 -2 -323 -3 -8 -1 -14 13 -16 34 -1 19
-9 80 -17 135 -8 55 -17 192 -20 305 -7 265 -33 781 -49 957 l-4 43 59 -55
c153 -141 246 -163 388 -91 114 58 171 219 115 328 -14 27 -14 27 24 31 49 6
229 3 235 -3z m132 -25 c44 -9 103 -23 130 -30 28 -8 69 -19 93 -25 38 -10 41
-13 31 -31 -19 -36 -38 -111 -64 -249 -14 -74 -34 -173 -45 -220 -10 -47 -26
-134 -35 -195 -16 -109 -16 -109 -63 -158 -26 -26 -91 -87 -144 -134 -87 -76
-118 -112 -89 -101 6 2 71 63 145 136 115 112 136 129 136 108 0 -14 5 -28 11
-31 6 -4 7 -14 4 -24 -11 -28 -16 -91 -7 -91 4 0 7 -28 6 -61 -1 -52 -5 -65
-25 -80 -23 -17 -25 -17 -37 -1 -14 19 -14 19 -41 -5 -61 -56 -71 -64 -82 -57
-13 8 27 43 49 44 7 0 11 4 8 9 -3 5 13 25 35 46 61 55 42 52 -27 -5 -90 -74
-87 -42 5 45 45 43 79 81 75 84 -3 3 -11 -2 -18 -11 -15 -21 -247 -218 -256
-218 -19 0 -25 292 -10 495 5 72 14 200 20 285 10 147 60 441 82 483 5 10 15
16 21 14 7 -3 48 -12 92 -22z m-2128 -117 c-3 -8 -6 -5 -6 6 -1 11 2 17 5 13
3 -3 4 -12 1 -19z m220 -30 c-3 -8 -6 -5 -6 6 -1 11 2 17 5 13 3 -3 4 -12 1
-19z m109 -64 c0 0 -50 -28 -109 -62 -60 -34 -113 -62 -117 -62 -11 0 -24 83
-14 87 5 2 59 27 119 56 l110 54 6 -36 c4 -20 6 -36 5 -37z m611 -89 c4 -4 3
-5 -4 -2 -6 4 -13 2 -15 -5 -3 -8 -6 -6 -10 4 -7 17 15 19 29 3z m33 -49 c0
-2 -9 -6 -20 -9 -11 -3 -18 -1 -14 4 5 9 34 13 34 5z m-1410 -196 c0 -169 -1
-180 -17 -171 -45 24 -142 146 -178 222 -31 68 -31 77 3 90 24 10 147 36 180
38 9 1 12 -41 12 -179z m615 162 c-3 -3 -11 0 -18 7 -9 10 -8 11 6 5 10 -3 15
-9 12 -12z m676 -15 c-10 -9 -11 -8 -5 6 3 10 9 15 12 12 3 -3 0 -11 -7 -18z
m74 -16 c5 -10 201 -131 210 -131 3 0 5 18 5 40 0 22 5 40 10 40 15 0 18 -14
23 -112 4 -81 3 -88 -14 -88 -10 0 -19 -4 -19 -10 0 -5 9 -10 20 -10 16 0 20
-7 20 -35 l0 -35 -37 15 c-51 21 -87 48 -91 69 -2 9 8 32 22 51 14 18 26 38
26 43 0 10 -116 89 -179 121 -35 18 -40 25 -31 37 14 16 26 18 35 5z m-155
-17 c0 -8 -19 -13 -24 -6 -3 5 1 9 9 9 8 0 15 -2 15 -3z m17 -76 c-3 -8 -6 -5
-6 6 -1 11 2 17 5 13 3 -3 4 -12 1 -19z m-1727 -9 c0 -5 -7 -9 -15 -9 -15 0
-20 12 -9 23 8 8 24 -1 24 -14z m82 -1 c-7 -7 -12 -8 -12 -2 0 14 12 26 19 19
2 -3 -1 -11 -7 -17z m49 9 c-1 -12 -15 -9 -19 4 -3 6 1 10 8 8 6 -3 11 -8 11
-12z m39 -3 c0 -8 -4 -12 -10 -9 -5 3 -10 10 -10 16 0 5 5 9 10 9 6 0 10 -7
10 -16z m-130 -4 c0 -5 -4 -10 -10 -10 -5 0 -10 5 -10 10 0 6 5 10 10 10 6 0
10 -4 10 -10z m274 -38 c16 -26 51 -72 77 -103 l47 -55 -26 -33 c-36 -47 -82
-64 -132 -51 l-40 11 0 126 c0 108 2 128 18 139 24 19 24 19 56 -34z m435 35
c8 -10 7 -14 -2 -14 -8 0 -14 6 -14 14 0 7 1 13 2 13 2 0 8 -6 14 -13z m-753
-54 c-10 -10 -19 5 -10 18 6 11 8 11 12 0 2 -7 1 -15 -2 -18z m36 5 c-7 -7
-12 -8 -12 -2 0 14 12 26 19 19 2 -3 -1 -11 -7 -17z m60 7 c0 -5 -5 -11 -11
-13 -6 -2 -11 4 -11 13 0 9 5 15 11 13 6 -2 11 -8 11 -13z m48 7 c0 -13 -12
-22 -22 -16 -10 6 -1 24 13 24 5 0 9 -4 9 -8z m922 -57 c2 3 5 -2 5 -10 0 -19
1 -20 -28 12 -17 20 -18 23 -3 10 11 -9 23 -15 26 -12z m-1010 0 c0 -5 -5 -11
-11 -13 -6 -2 -11 4 -11 13 0 9 5 15 11 13 6 -2 11 -8 11 -13z m48 7 c0 -13
-12 -22 -22 -16 -10 6 -1 24 13 24 5 0 9 -4 9 -8z m-90 -12 c0 -5 -7 -10 -15
-10 -8 0 -15 5 -15 10 0 6 7 10 15 10 8 0 15 -4 15 -10z m136 -10 c0 -12 -4
-16 -9 -11 -5 5 -6 14 -3 20 10 15 12 14 12 -9z m848 12 c3 -5 -1 -9 -9 -9 -8
0 -12 4 -9 9 3 4 7 8 9 8 2 0 6 -4 9 -8z m-120 -11 c3 -4 -6 -6 -19 -3 -14 2
-25 6 -25 8 0 8 39 4 44 -5z m-814 -42 c0 -5 -7 -9 -15 -9 -15 0 -20 12 -9 23
8 8 24 -1 24 -14z m-92 0 c-2 -6 -8 -10 -13 -10 -5 0 -11 4 -13 10 -2 6 4 11
13 11 9 0 15 -5 13 -11z m42 1 c0 -5 -4 -10 -10 -10 -5 0 -10 5 -10 10 0 6 5
10 10 10 6 0 10 -4 10 -10z m-40 -50 c0 -5 -4 -10 -10 -10 -5 0 -10 5 -10 10
0 6 5 10 10 10 6 0 10 -4 10 -10z m50 0 c0 -5 -5 -10 -11 -10 -5 0 -7 5 -4 10
3 6 8 10 11 10 2 0 4 -4 4 -10z m40 0 c0 -5 -4 -10 -10 -10 -5 0 -10 5 -10 10
0 6 5 10 10 10 6 0 10 -4 10 -10z m1750 -6 c0 -4 -10 -24 -22 -45 l-21 -38 24
-20 c13 -11 27 -20 31 -21 4 0 24 21 45 47 l38 46 7 -39 c10 -55 -1 -134 -19
-134 -7 0 -31 9 -52 20 -45 22 -52 18 -94 -47 -25 -40 -29 -42 -52 -31 -14 6
-25 14 -25 17 0 8 62 85 72 89 14 6 9 21 -22 64 -16 22 -30 46 -30 53 0 7 24
19 53 27 63 19 67 20 67 12z m-1310 -315 l0 -279 -42 -1 -43 -2 40 -6 c26 -4
41 -12 43 -23 4 -20 -69 -39 -180 -45 l-77 -4 -3 301 c-2 165 -2 300 -2 300 1
0 18 -7 38 -15 52 -22 106 -6 148 44 31 37 33 38 55 24 l23 -15 0 -279z m-440
281 c0 -5 -5 -10 -11 -10 -5 0 -7 5 -4 10 3 6 8 10 11 10 2 0 4 -4 4 -10z
m-125 -9 c3 -5 1 -12 -5 -16 -5 -3 -10 1 -10 9 0 18 6 21 15 7z m43 -2 c-2 -6
-8 -10 -13 -10 -5 0 -11 4 -13 10 -2 6 4 11 13 11 9 0 15 -5 13 -11z m47 1 c3
-5 -1 -10 -9 -10 -9 0 -16 5 -16 10 0 6 4 10 9 10 6 0 13 -4 16 -10z m1110 0
c-3 -5 -1 -10 6 -10 7 0 10 -3 6 -6 -9 -9 -28 6 -22 17 4 5 8 9 11 9 3 0 2 -4
-1 -10z m-114 -37 c13 -16 12 -17 -3 -4 -10 7 -18 15 -18 17 0 8 8 3 21 -13z
m174 8 c3 -5 2 -12 -3 -15 -5 -3 -9 1 -9 9 0 17 3 19 12 6z m-94 -18 c13 -16
12 -17 -3 -4 -10 7 -18 15 -18 17 0 8 8 3 21 -13z m-1167 -14 c-3 -5 -10 -7
-15 -3 -5 3 -7 10 -3 15 3 5 10 7 15 3 5 -3 7 -10 3 -15z m1221 -9 c-3 -5 -12
-10 -18 -10 -7 0 -6 4 3 10 19 12 23 12 15 0z m-1255 -41 c0 -5 -7 -9 -15 -9
-15 0 -20 12 -9 23 8 8 24 -1 24 -14z m40 6 c0 -8 -4 -15 -10 -15 -5 0 -10 7
-10 15 0 8 5 15 10 15 6 0 10 -7 10 -15z m884 -15 c-6 -6 -10 -3 -10 10 0 13
4 16 10 10 7 -7 7 -13 0 -20z m-974 10 c0 -5 -4 -10 -10 -10 -5 0 -10 5 -10
10 0 6 5 10 10 10 6 0 10 -4 10 -10z m1768 -32 c46 -37 48 -54 8 -50 -18 2
-25 -1 -21 -7 3 -6 15 -11 26 -11 51 0 159 -78 159 -115 0 -27 -49 -54 -102
-56 -33 -2 -33 -2 -3 -6 33 -5 54 -28 55 -60 0 -28 -32 -38 -98 -30 -39 5 -43
4 -24 -5 17 -8 22 -19 20 -37 -5 -40 -55 -40 -134 -1 -60 29 -124 90 -124 117
0 7 14 29 32 49 38 43 40 39 -78 105 -94 51 -100 60 -70 88 l24 23 56 -46 c99
-81 146 -96 146 -47 0 31 17 89 33 109 16 21 53 13 95 -20z m-771 -34 c-3 -3
-12 -4 -19 -1 -8 3 -5 6 6 6 11 1 17 -2 13 -5z m1284 -101 c12 -15 12 -16 -4
-10 -10 4 -23 7 -28 7 -6 0 -7 5 -4 10 9 15 21 12 36 -7z m-10 -73 c10 -6 19
-16 19 -22 0 -9 -3 -9 -12 0 -22 22 -53 13 -71 -20 -36 -65 -42 -70 -72 -56
-25 11 -29 10 -54 -21 -25 -30 -29 -32 -54 -20 -32 14 -37 33 -6 24 16 -5 30
1 55 26 32 31 35 32 60 19 28 -16 26 -17 77 55 20 28 29 30 58 15z m-251 -29
c0 -6 -4 -12 -9 -16 -5 -3 -18 -37 -27 -75 -20 -75 -36 -95 -27 -32 9 64 34
132 49 132 8 0 14 -4 14 -9z m137 -28 c-7 -6 -46 10 -41 18 3 5 14 3 24 -3 11
-7 18 -13 17 -15z m124 10 c13 -16 12 -17 -3 -4 -10 7 -27 11 -38 8 -11 -3
-18 -1 -14 4 9 15 41 10 55 -8z m-236 -23 c3 -5 2 -10 -4 -10 -5 0 -13 5 -16
10 -3 6 -2 10 4 10 5 0 13 -4 16 -10z m-10 -28 c-3 -3 -11 0 -18 7 -9 10 -8
11 6 5 10 -3 15 -9 12 -12z m1099 10 c4 -8 -71 -80 -108 -104 -6 -4 -7 -10 -4
-14 4 -3 26 10 49 30 44 37 59 44 59 26 0 -5 -7 -10 -17 -10 -9 0 -14 -3 -10
-6 3 -4 -15 -24 -41 -45 -41 -34 -48 -37 -54 -22 -16 42 -8 60 50 106 60 48
68 52 76 39z m126 -13 c0 -5 -7 -9 -15 -9 -15 0 -20 12 -9 23 8 8 24 -1 24
-14z m-1070 -8 c-10 -20 -30 -37 -30 -27 0 6 33 46 38 46 1 0 -2 -9 -8 -19z
m1128 7 c19 -19 14 -30 -8 -18 -11 6 -20 15 -20 20 0 14 14 12 28 -2z m-125
-54 c-21 -18 -50 -39 -64 -46 -14 -7 -26 -17 -27 -21 -2 -14 -87 -77 -90 -67
-4 11 58 68 100 92 16 9 29 19 28 23 -2 11 74 64 83 58 5 -3 -8 -21 -30 -39z
m116 21 c13 -14 22 -27 20 -30 -8 -7 -69 37 -63 46 8 14 17 11 43 -16z m27
-77 c10 -32 1 -29 -54 21 -29 26 -49 50 -46 54 10 9 93 -53 100 -75z m-1260
53 c-12 -13 -24 -17 -39 -13 -21 6 -21 7 3 10 14 2 29 8 35 13 17 17 18 9 1
-10z m1154 -10 c0 -5 -12 -16 -26 -26 -14 -9 -33 -24 -43 -33 -26 -26 -112
-96 -128 -105 -8 -5 -17 -6 -21 -3 -7 8 58 65 76 66 6 0 12 5 12 10 0 6 8 14
17 17 10 4 27 17 39 30 12 13 26 23 32 23 5 0 12 7 16 15 6 16 26 21 26 6z
m-1611 -13 c19 -12 19 -13 -5 -41 -33 -39 -30 -54 11 -71 40 -17 42 -25 18
-55 -16 -20 -99 -48 -110 -37 -2 2 3 19 13 37 16 32 16 33 -7 52 l-23 19 -34
-37 c-19 -20 -36 -34 -39 -32 -10 11 -15 154 -6 160 6 4 33 -5 62 -19 55 -28
73 -24 86 17 7 22 9 23 34 7z m1658 -28 c12 0 68 -58 62 -65 -7 -6 -79 46 -79
57 0 4 -7 8 -15 8 -16 0 -20 12 -8 24 4 4 13 0 19 -8 6 -9 15 -16 21 -16z
m-53 -21 c-3 -5 -10 -7 -15 -3 -5 3 -7 10 -3 15 3 5 10 7 15 3 5 -3 7 -10 3
-15z m-49 -37 c-19 -19 -29 -22 -37 -14 -8 8 -6 13 8 18 10 4 23 14 27 21 5 7
13 11 18 7 6 -3 -1 -17 -16 -32z m135 -24 c0 -5 -9 -4 -20 2 -11 6 -20 15 -20
19 0 5 -9 11 -21 14 -12 3 -18 10 -14 16 7 12 75 -34 75 -51z m-86 26 c9 -3
14 -10 11 -15 -7 -10 -35 0 -35 12 0 11 3 11 24 3z m-24 -40 c-7 -7 -18 -10
-26 -7 -11 4 -12 9 -4 19 7 7 18 10 26 7 11 -4 12 -9 4 -19z m-72 8 c-7 -17
-99 -94 -105 -88 -8 8 47 66 63 66 6 0 14 7 18 15 3 8 10 15 17 15 6 0 9 -4 7
-8z m142 -2 c0 -5 -7 -10 -15 -10 -8 0 -15 5 -15 10 0 6 7 10 15 10 8 0 15 -4
15 -10z m-112 -41 c-16 -10 -33 5 -23 21 5 8 11 8 21 -1 12 -10 12 -14 2 -20z
m76 22 c3 -5 -1 -12 -10 -15 -20 -8 -29 -1 -19 13 8 13 22 14 29 2z m-109 -51
c-4 -6 -14 -9 -22 -6 -8 3 -12 2 -8 -3 5 -10 -50 -61 -66 -61 -20 0 -7 20 38
59 29 26 50 38 56 32 5 -5 6 -14 2 -21z m57 8 c-7 -7 -12 -8 -12 -2 0 14 12
26 19 19 2 -3 -1 -11 -7 -17z m-27 -18 c3 -5 -1 -10 -10 -10 -9 0 -13 5 -10
10 3 6 8 10 10 10 2 0 7 -4 10 -10z m-60 -56 c-53 -44 -72 -46 -26 -4 24 22
47 38 50 34 3 -3 -7 -17 -24 -30z m35 2 c0 -2 -24 -23 -52 -46 l-53 -42 50 46
c49 45 55 50 55 42z m-2090 -12 c0 -8 -19 -13 -24 -6 -3 5 1 9 9 9 8 0 15 -2
15 -3z m-50 -24 c0 -5 -2 -10 -4 -10 -3 0 -8 5 -11 10 -3 6 -1 10 4 10 6 0 11
-4 11 -10z m1340 -85 c0 -10 10 -15 30 -15 30 0 30 0 30 -59 0 -56 -1 -59 -30
-71 -43 -18 -41 -54 5 -81 32 -19 35 -25 35 -69 0 -47 0 -47 -37 -53 -20 -4
-38 -5 -40 -3 -2 2 -6 85 -10 185 -5 134 -3 181 5 181 7 0 12 -7 12 -15z m-66
-87 c3 -50 6 -130 6 -178 0 -82 -1 -88 -22 -93 -12 -4 -23 -5 -24 -4 -6 6 -25
339 -20 352 3 8 16 15 29 15 23 0 24 -4 31 -92z m352 48 c10 -41 1 -61 -26
-61 -20 0 -26 6 -28 28 -5 40 4 57 27 57 13 0 23 -9 27 -24z m94 -16 c0 -38
-2 -40 -30 -40 -28 0 -30 2 -30 40 0 38 2 40 30 40 28 0 30 -2 30 -40z m-680
-16 c0 -33 -2 -35 -27 -32 -47 5 -45 68 2 68 22 0 25 -4 25 -36z m-90 -4 c0
-16 -7 -20 -35 -20 -38 0 -46 13 -17 29 28 17 52 13 52 -9z m100 -161 c0 -11
-4 -17 -10 -14 -5 3 -10 13 -10 21 0 8 5 14 10 14 6 0 10 -9 10 -21z m2 -99
c4 -28 3 -30 -29 -30 -28 0 -33 3 -33 24 0 23 12 31 46 35 7 0 14 -12 16 -29z
m-102 -14 c0 -16 -43 -27 -62 -15 -9 6 -6 11 12 18 35 14 50 13 50 -3z"/>
<path d="M2367 3734 c-22 -29 -14 -47 8 -18 12 16 20 45 13 44 -2 0 -11 -12
-21 -26z"/>
<path d="M2813 3656 c-3 -5 -1 -6 5 -2 6 3 13 2 17 -4 7 -11 25 -4 25 8 0 11
-40 9 -47 -2z"/>
<path d="M2068 3493 c6 -2 18 -2 25 0 6 3 1 5 -13 5 -14 0 -19 -2 -12 -5z"/>
<path d="M2007 3482 c-23 -5 -16 -27 9 -28 17 -1 17 -1 -1 4 -18 5 -18 6 5 11
28 8 15 20 -13 13z"/>
<path d="M2165 3480 c-25 -11 1 -11 35 0 20 6 21 8 5 8 -11 0 -29 -3 -40 -8z"/>
<path d="M2230 3470 c0 -11 50 -34 58 -26 2 3 -7 8 -22 12 -14 3 -23 10 -20
15 3 5 0 9 -5 9 -6 0 -11 -5 -11 -10z"/>
<path d="M1845 3461 c-3 -6 -11 -9 -16 -6 -5 3 -6 -1 -3 -9 5 -14 8 -14 21 0
9 8 13 17 10 20 -3 3 -8 0 -12 -5z"/>
<path d="M1928 3463 c6 -2 18 -2 25 0 6 3 1 5 -13 5 -14 0 -19 -2 -12 -5z"/>
<path d="M2066 3461 c-3 -5 0 -11 7 -14 8 -3 14 1 14 9 0 16 -13 19 -21 5z"/>
<path d="M1878 3453 c7 -3 16 -2 19 1 4 3 -2 6 -13 5 -11 0 -14 -3 -6 -6z"/>
<path d="M2198 3453 c7 -3 16 -2 19 1 4 3 -2 6 -13 5 -11 0 -14 -3 -6 -6z"/>
<path d="M1801 3438 c-1 -9 -9 -22 -18 -27 -17 -10 -17 -10 0 -11 19 0 32 22
24 42 -4 8 -6 7 -6 -4z"/>
<path d="M2410 3420 c-8 -5 -10 -10 -5 -10 6 0 17 5 25 10 8 5 11 10 5 10 -5
0 -17 -5 -25 -10z"/>
<path d="M1548 3413 c7 -3 16 -2 19 1 4 3 -2 6 -13 5 -11 0 -14 -3 -6 -6z"/>
<path d="M1820 3400 c0 -5 5 -10 11 -10 5 0 7 5 4 10 -3 6 -8 10 -11 10 -2 0
-4 -4 -4 -10z"/>
<path d="M1631 3384 c0 -11 3 -14 6 -6 3 7 2 16 -1 19 -3 4 -6 -2 -5 -13z"/>
<path d="M2400 3390 c0 -5 10 -10 23 -10 18 0 19 2 7 10 -19 13 -30 13 -30 0z"/>
<path d="M1478 3371 c8 -4 13 -12 12 -17 -1 -5 3 -10 9 -12 6 -2 11 0 11 5 0
12 -22 33 -34 33 -6 0 -5 -4 2 -9z"/>
<path d="M1680 3370 c8 -5 22 -9 30 -9 10 0 8 3 -5 9 -27 12 -43 12 -25 0z"/>
<path d="M1791 3363 c7 -10 14 -20 16 -22 1 -2 1 6 0 18 -1 11 -8 21 -15 21
-12 0 -12 -3 -1 -17z"/>
<path d="M2560 3372 c0 -5 7 -9 15 -9 8 0 12 4 9 9 -3 4 -9 8 -15 8 -5 0 -9
-4 -9 -8z"/>
<path d="M1825 3359 c-4 -6 -5 -12 -2 -15 2 -3 7 2 10 11 7 17 1 20 -8 4z"/>
<path d="M1767 3347 c-4 -10 2 -17 20 -22 14 -3 28 -4 31 0 3 3 -2 5 -11 5 -9
0 -20 7 -25 16 -8 14 -10 14 -15 1z"/>
<path d="M1893 3345 c0 -7 6 -11 14 -8 7 3 13 6 13 8 0 2 -6 5 -13 8 -8 3 -14
-1 -14 -8z"/>
<path d="M2115 3350 c6 -10 4 -12 -8 -7 -10 4 -17 2 -17 -4 0 -7 10 -9 27 -4
16 4 25 3 21 -1 -4 -4 0 -13 9 -19 13 -10 22 -10 35 -2 13 9 21 8 30 -1 6 -6
17 -12 23 -12 18 0 -49 39 -77 44 -15 2 -33 8 -39 12 -8 5 -9 3 -4 -6z m65
-26 c0 -2 -7 -4 -15 -4 -8 0 -15 4 -15 10 0 5 7 7 15 4 8 -4 15 -8 15 -10z"/>
<path d="M1315 3340 c4 -6 11 -8 16 -5 14 9 11 15 -7 15 -8 0 -12 -5 -9 -10z"/>
<path d="M1846 3334 c-16 -11 -17 -14 -4 -14 9 0 25 -3 35 -6 11 -4 14 -3 7 3
-6 4 -13 13 -15 20 -3 8 -9 8 -23 -3z"/>
<path d="M2598 3343 c6 -2 18 -2 25 0 6 3 1 5 -13 5 -14 0 -19 -2 -12 -5z"/>
<path d="M1279 3323 c-13 -16 -12 -17 4 -4 9 7 17 15 17 17 0 8 -8 3 -21 -13z"/>
<path d="M1540 3330 c-9 -6 -10 -10 -3 -10 6 0 15 5 18 10 8 12 4 12 -15 0z"/>
<path d="M1954 3329 c-3 -6 -15 -9 -25 -6 -27 7 -24 1 15 -22 37 -23 51 -27
40 -10 -3 6 0 15 7 20 9 6 3 7 -16 3 -27 -7 -29 -6 -16 9 7 10 11 17 8 17 -3
0 -9 -5 -13 -11z"/>
<path d="M2646 3325 c-3 -8 -1 -15 4 -15 6 0 10 7 10 15 0 8 -2 15 -4 15 -2 0
-6 -7 -10 -15z"/>
<path d="M2666 3314 c-11 -29 -6 -38 10 -18 10 12 14 13 11 4 -3 -10 3 -15 18
-15 18 0 21 3 12 13 -20 25 -45 33 -51 16z"/>
<path d="M2560 3310 c0 -13 18 -22 24 -11 3 5 -1 11 -9 15 -8 3 -15 1 -15 -4z"/>
<path d="M1701 3294 c0 -11 3 -14 6 -6 3 7 2 16 -1 19 -3 4 -6 -2 -5 -13z"/>
<path d="M2375 3270 l-20 -9 20 -1 c19 -1 19 -2 1 -9 -18 -7 -18 -8 -3 -14 9
-3 17 -3 18 1 0 4 2 15 4 25 2 9 3 17 2 16 -1 0 -11 -4 -22 -9z"/>
<path d="M1379 3253 c-13 -16 -12 -17 4 -4 9 7 17 15 17 17 0 8 -8 3 -21 -13z"/>
<path d="M1400 3247 c-12 -21 -12 -21 6 -7 10 8 20 15 22 16 2 1 -1 4 -5 7 -5
3 -15 -4 -23 -16z"/>
<path d="M2105 3240 c3 -5 8 -10 11 -10 2 0 4 5 4 10 0 6 -5 10 -11 10 -5 0
-7 -4 -4 -10z"/>
<path d="M2725 3240 c-3 -6 1 -7 9 -4 18 7 21 14 7 14 -6 0 -13 -4 -16 -10z"/>
<path d="M2346 3225 c10 -8 24 -14 29 -14 6 0 1 6 -9 14 -11 8 -24 15 -30 15
-5 0 -1 -7 10 -15z"/>
<path d="M1478 3223 c7 -3 16 -2 19 1 4 3 -2 6 -13 5 -11 0 -14 -3 -6 -6z"/>
<path d="M1685 3190 c-3 -5 -2 -10 4 -10 5 0 13 5 16 10 3 6 2 10 -4 10 -5 0
-13 -4 -16 -10z"/>
<path d="M2500 3180 c-8 -5 -10 -10 -5 -10 6 0 17 5 25 10 8 5 11 10 5 10 -5
0 -17 -5 -25 -10z"/>
<path d="M2810 3180 c0 -5 5 -10 10 -10 6 0 10 5 10 10 0 6 -4 10 -10 10 -5 0
-10 -4 -10 -10z"/>
<path d="M2850 3180 c0 -5 5 -10 10 -10 6 0 10 5 10 10 0 6 -4 10 -10 10 -5 0
-10 -4 -10 -10z"/>
<path d="M2466 3171 c-3 -5 1 -14 9 -21 10 -9 15 -9 15 -1 0 6 -5 11 -11 11
-5 0 -7 5 -4 10 3 6 4 10 1 10 -3 0 -7 -4 -10 -9z"/>
<path d="M1426 3155 c-3 -8 -1 -15 4 -15 6 0 10 7 10 15 0 8 -2 15 -4 15 -2 0
-6 -7 -10 -15z"/>
<path d="M2830 3141 c0 -6 5 -13 10 -16 6 -3 10 1 10 9 0 9 -4 16 -10 16 -5 0
-10 -4 -10 -9z"/>
<path d="M2882 3141 c-11 -7 -11 -9 1 -14 9 -3 18 1 21 9 6 16 -2 18 -22 5z"/>
<path d="M2917 3137 c-3 -7 3 -13 14 -13 13 0 15 3 7 13 -6 7 -12 13 -13 13
-2 0 -5 -6 -8 -13z"/>
<path d="M1726 3123 c-6 -14 -5 -15 5 -6 7 7 10 15 7 18 -3 3 -9 -2 -12 -12z"/>
<path d="M1426 3113 c-4 -9 -3 -20 2 -25 4 -4 9 4 10 17 2 29 -3 32 -12 8z"/>
<path d="M2966 3088 c1 -13 3 -25 4 -28 1 -3 2 -7 2 -10 0 -4 10 -6 23 -6 13
0 21 4 19 8 -3 5 -10 5 -16 2 -7 -5 -9 -1 -5 8 3 9 -2 23 -12 32 -16 15 -17
14 -15 -6z"/>
<path d="M1745 3090 c-3 -5 1 -10 10 -10 9 0 13 5 10 10 -3 6 -8 10 -10 10 -2
0 -7 -4 -10 -10z"/>
<path d="M1400 3065 c-9 -10 -9 -15 -1 -15 6 0 11 6 11 13 0 8 4 7 10 -3 6 -9
10 -10 10 -3 0 19 -17 24 -30 8z"/>
<path d="M1680 3070 c0 -5 5 -10 10 -10 6 0 10 5 10 10 0 6 -4 10 -10 10 -5 0
-10 -4 -10 -10z"/>
<path d="M1750 3060 c-9 -6 -10 -10 -3 -10 6 0 15 5 18 10 8 12 4 12 -15 0z"/>
<path d="M1670 3040 c-13 -8 -13 -10 2 -10 9 0 20 5 23 10 8 13 -5 13 -25 0z"/>
<path d="M1770 3040 c0 -5 -8 -6 -17 -3 -15 6 -16 5 -3 -9 17 -18 41 -13 33 8
-6 16 -13 19 -13 4z"/>
<path d="M1395 3030 c-3 -6 0 -10 7 -10 9 0 9 -3 -2 -10 -8 -5 -10 -10 -5 -10
23 0 33 15 19 27 -8 8 -15 9 -19 3z"/>
<path d="M1628 3033 c7 -3 16 -2 19 1 4 3 -2 6 -13 5 -11 0 -14 -3 -6 -6z"/>
<path d="M2693 3021 c-10 -16 -9 -20 7 -24 14 -4 18 0 15 15 -6 29 -9 30 -22
9z"/>
<path d="M2805 3031 c-3 -5 -2 -12 3 -15 5 -3 9 1 9 9 0 17 -3 19 -12 6z"/>
<path d="M1518 3023 c6 -2 18 -2 25 0 6 3 1 5 -13 5 -14 0 -19 -2 -12 -5z"/>
<path d="M2956 3021 c-4 -5 3 -7 14 -4 23 6 26 13 6 13 -8 0 -17 -4 -20 -9z"/>
<path d="M1730 3016 c0 -2 7 -9 15 -16 13 -11 14 -10 9 4 -5 14 -24 23 -24 12z"/>
<path d="M3024 3011 c15 -6 17 -9 6 -16 -9 -6 -6 -11 14 -19 25 -10 25 -12 12
-38 -8 -16 -11 -28 -5 -28 5 0 9 6 9 13 0 7 7 4 15 -7 8 -11 15 -14 15 -7 0 7
5 9 10 6 16 -10 12 11 -5 25 -13 11 -14 10 -9 -5 5 -13 4 -16 -5 -11 -7 5 -11
17 -8 27 3 11 -2 23 -11 29 -10 5 -13 10 -8 10 5 0 3 7 -4 15 -7 8 -20 15 -29
14 -12 0 -12 -2 3 -8z"/>
<path d="M2760 2996 c0 -9 5 -16 10 -16 6 0 10 4 10 9 0 6 -4 13 -10 16 -5 3
-10 -1 -10 -9z"/>
<path d="M1782 2985 c2 -14 -2 -19 -12 -17 -8 2 -11 0 -7 -4 17 -17 35 -12 32
8 -6 27 -18 39 -13 13z"/>
<path d="M2935 2990 c3 -5 8 -10 11 -10 2 0 4 5 4 10 0 6 -5 10 -11 10 -5 0
-7 -4 -4 -10z"/>
<path d="M2915 2970 c10 -11 20 -20 23 -20 3 0 -3 9 -13 20 -10 11 -20 20 -23
20 -3 0 3 -9 13 -20z"/>
<path d="M2950 2950 c0 -11 91 -84 109 -87 11 -1 22 5 25 14 6 14 4 14 -11 2
-15 -13 -16 -12 -9 6 6 16 5 18 -5 8 -16 -16 -33 -17 -24 -3 4 6 3 10 -2 9
-20 -4 -24 2 -12 18 8 9 9 14 2 10 -7 -4 -14 0 -17 11 -6 16 -56 28 -56 12z
m45 -20 c10 -11 14 -20 9 -20 -5 0 -15 9 -22 20 -7 11 -11 20 -9 20 2 0 12 -9
22 -20z"/>
<path d="M3130 2872 c0 -7 -4 -10 -10 -7 -6 4 -7 -1 -3 -12 6 -16 5 -17 -13
-3 -14 10 -16 11 -7 0 8 -8 9 -18 3 -25 -6 -7 -2 -11 11 -12 12 -1 19 3 16 10
-2 7 2 17 9 22 10 7 11 15 4 25 -7 11 -10 11 -10 2z"/>
<path d="M3065 2840 c3 -5 11 -10 16 -10 6 0 7 5 4 10 -3 6 -11 10 -16 10 -6
0 -7 -4 -4 -10z"/>
<path d="M3170 2736 c10 -13 40 -12 40 1 0 3 -7 3 -15 -1 -8 -3 -15 -1 -15 4
0 6 -5 10 -11 10 -8 0 -8 -4 1 -14z"/>
<path d="M3210 2690 c6 -11 13 -20 16 -20 2 0 0 9 -6 20 -6 11 -13 20 -16 20
-2 0 0 -9 6 -20z"/>
<path d="M2139 2973 c-17 -20 -18 -23 -3 -10 26 21 53 22 82 1 20 -13 22 -13
22 0 0 17 -30 36 -58 36 -10 0 -29 -12 -43 -27z"/>
<path d="M1624 2696 c-32 -14 -59 -41 -29 -30 8 4 21 2 28 -4 6 -5 25 -12 42
-16 16 -4 33 -13 37 -19 12 -20 22 23 12 52 -11 31 -44 37 -90 17z m61 -17 c4
-6 5 -13 1 -16 -8 -8 -56 6 -56 17 0 13 47 13 55 -1z"/>
<path d="M1893 2598 c-46 -32 -41 -43 6 -16 47 27 56 22 37 -18 -8 -16 -35
-109 -60 -207 -43 -167 -56 -260 -38 -270 4 -3 7 23 8 57 0 33 3 73 7 87 6 25
9 26 79 25 57 -1 83 4 119 22 49 24 87 77 76 105 -12 31 -68 51 -144 49 l-71
-1 18 54 c22 65 38 95 50 95 4 0 18 -16 30 -35 32 -52 44 -42 16 14 -35 68
-75 79 -133 39z m191 -199 c32 -25 33 -49 3 -77 -35 -33 -91 -52 -152 -52 -62
0 -76 13 -57 56 10 20 19 24 54 24 32 0 39 3 28 10 -8 5 -27 10 -42 10 -29 0
-33 6 -20 26 10 16 36 21 103 23 43 1 63 -4 83 -20z"/>
<path d="M2540 2255 c0 -15 18 -40 24 -34 3 3 -1 14 -9 25 -8 10 -14 15 -15 9z"/>
<path d="M2600 2190 c1 -17 28 -56 34 -49 3 3 -4 18 -14 34 -11 17 -20 23 -20
15z"/>
<path d="M2670 2132 c0 -13 41 -64 47 -58 3 3 -6 19 -21 36 -14 17 -26 27 -26
22z"/>
<path d="M2760 2070 c6 -11 15 -20 20 -20 14 0 1 28 -16 34 -12 4 -12 2 -4
-14z"/>
<path d="M2834 2962 c5 -8 -1 -20 -13 -31 -17 -15 -19 -20 -7 -24 9 -4 17 2
21 14 4 10 10 17 15 14 5 -3 6 -13 3 -22 -6 -15 -5 -16 9 -3 11 11 12 18 4 25
-6 5 -17 17 -25 25 -8 8 -11 9 -7 2z"/>
<path d="M2883 2889 c13 -8 15 -15 8 -28 -7 -12 -6 -22 1 -29 15 -15 32 -16
23 -2 -3 6 -1 10 5 10 6 0 8 5 5 10 -4 6 -11 7 -17 4 -8 -5 -9 -1 -4 11 7 18
-8 35 -29 35 -5 -1 -2 -5 8 -11z"/>
<path d="M2425 2680 c-3 -5 -1 -10 4 -10 6 0 11 5 11 10 0 6 -2 10 -4 10 -3 0
-8 -4 -11 -10z"/>
<path d="M2320 2690 c0 -5 5 -10 10 -10 6 0 10 5 10 10 0 6 -4 10 -10 10 -5 0
-10 -4 -10 -10z"/>
<path d="M2903 1882 l-273 -2 0 -35 0 -35 83 7 c45 5 169 8 275 8 l193 0 6 23
c3 13 2 27 -3 30 -5 4 -132 6 -281 4z m247 -28 c-36 -7 -500 -10 -488 -3 7 5
123 8 258 8 135 -1 238 -3 230 -5z"/>
<path d="M2695 1685 c-5 -2 -22 -6 -37 -9 -18 -4 -28 -13 -28 -24 0 -31 18
-40 58 -30 20 5 132 12 247 15 137 4 213 10 217 17 23 34 12 36 -219 35 -126
0 -232 -2 -238 -4z m178 -22 c-24 -2 -62 -2 -85 0 -24 2 -5 4 42 4 47 0 66 -2
43 -4z m245 0 c-10 -2 -26 -2 -35 0 -10 3 -2 5 17 5 19 0 27 -2 18 -5z m-390
-10 c-10 -2 -28 -2 -40 0 -13 2 -5 4 17 4 22 1 32 -1 23 -4z"/>
<path d="M2958 873 c-25 -30 -29 -54 -13 -79 19 -30 58 -31 85 -4 24 24 25 48
4 78 -18 26 -55 29 -76 5z m60 -41 c3 -31 2 -33 -25 -30 -31 3 -42 30 -22 54
20 24 44 12 47 -24z"/>
<path d="M2768 869 c-28 -16 -39 -44 -28 -73 8 -21 16 -26 45 -26 29 0 37 5
45 26 14 35 13 41 -10 64 -23 23 -28 24 -52 9z m46 -57 c-6 -9 -20 -17 -30
-17 -25 0 -31 35 -8 52 25 18 54 -8 38 -35z"/>
<path d="M3443 1678 c-15 -20 -25 -38 -20 -38 3 0 12 11 21 25 17 26 16 35 -1
13z"/>
<path d="M3453 1643 c-24 -19 -43 -30 -43 -23 0 7 -10 1 -21 -14 -33 -42 -17
-40 37 4 51 42 80 54 49 20 -10 -11 -15 -20 -10 -20 8 0 29 23 46 53 17 29
-12 20 -58 -20z"/>
<path d="M3474 1575 c-21 -19 -31 -32 -21 -29 25 9 21 -9 -8 -36 -14 -13 -24
-29 -21 -36 2 -6 -1 -17 -7 -25 -7 -7 6 0 28 15 24 17 -3 -15 -65 -78 -57 -58
-101 -106 -96 -106 11 0 68 41 63 46 -2 2 36 43 85 92 93 93 114 130 53 92
-46 -28 -44 -17 5 36 63 68 51 89 -16 29z m20 -10 c-4 -8 -11 -15 -16 -15 -6
0 -5 6 2 15 7 8 14 15 16 15 2 0 1 -7 -2 -15z m-44 -79 c0 -3 -4 -8 -10 -11
-5 -3 -10 -1 -10 4 0 6 5 11 10 11 6 0 10 -2 10 -4z"/>
<path d="M3369 1514 c-22 -24 -22 -26 -4 -22 11 2 20 8 20 13 0 6 4 16 8 23
13 20 2 14 -24 -14z"/>
<path d="M3409 1523 c-13 -16 -12 -17 4 -4 16 13 21 21 13 21 -2 0 -10 -8 -17
-17z"/>
<path d="M3348 1404 c-55 -51 -62 -65 -18 -34 24 17 78 81 68 80 -2 0 -24 -21
-50 -46z"/>
<path d="M3400 1262 c-42 -37 -88 -77 -104 -90 -16 -12 -26 -25 -23 -28 7 -7
40 20 141 113 38 35 67 65 65 67 -2 3 -38 -26 -79 -62z"/>
<path d="M2485 2970 c-3 -6 5 -10 19 -10 16 0 27 -7 31 -20 3 -11 11 -20 16
-20 12 0 11 4 -3 35 -11 26 -51 35 -63 15z"/>
<path d="M2248 953 c-8 -10 -18 -25 -23 -33 -4 -8 4 -1 18 15 l25 30 29 -27
c34 -33 49 -35 63 -9 13 25 13 41 0 41 -5 0 -10 -9 -10 -20 0 -11 -7 -20 -15
-20 -8 0 -19 9 -25 20 -13 25 -42 26 -62 3z"/>
<path d="M3735 383 c-28 -7 -45 -32 -45 -68 l0 -32 -177 -21 c-230 -29 -223
-29 -223 7 0 42 -17 52 -70 40 -54 -12 -102 -41 -124 -74 -18 -27 -22 -75 -6
-75 6 0 10 -4 10 -10 0 -5 -7 -10 -15 -10 -10 0 -15 -10 -15 -29 0 -36 44 -73
113 -97 58 -19 83 -8 93 41 8 42 -4 39 224 64 l175 19 28 -28 c37 -38 77 -46
122 -24 54 25 88 74 80 116 -3 18 -7 52 -9 76 -8 89 -66 127 -161 105z m110
-38 c38 -37 32 -50 -27 -61 -43 -7 -53 -13 -53 -29 0 -17 8 -20 53 -23 49 -3
53 -5 47 -25 -13 -46 -41 -72 -79 -75 -31 -3 -38 1 -54 27 -15 27 -22 31 -62
31 -52 0 -198 -14 -317 -31 l-81 -11 -11 -44 c-11 -41 -14 -44 -45 -44 -33 0
-96 35 -104 58 -2 8 10 12 42 12 40 0 46 3 52 25 11 44 -1 58 -46 50 -21 -4
-44 -4 -50 0 -29 18 76 84 134 85 25 0 28 -3 24 -25 -11 -54 -1 -55 230 -27
l212 26 0 35 c0 47 9 58 45 64 58 8 66 7 90 -18z m30 -85 c-3 -5 -25 -10 -48
-10 -31 0 -38 3 -27 10 20 13 83 13 75 0z m-702 -87 c-13 -2 -35 -2 -50 0 -16
2 -5 4 22 4 28 0 40 -2 28 -4z m702 -23 c-17 -33 -61 -60 -98 -60 -13 0 -37
14 -56 34 -21 22 -39 32 -54 30 -12 -2 -85 -10 -162 -19 -77 -9 -158 -18 -180
-21 -27 -3 -37 -2 -30 5 6 6 97 20 202 32 l193 21 35 -31 c48 -42 84 -41 122
3 35 43 49 46 28 6z m-698 4 c-3 -3 -12 -4 -19 -1 -8 3 -5 6 6 6 11 1 17 -2
13 -5z m-17 -111 c0 -7 -39 17 -46 28 -3 6 5 3 20 -6 14 -10 26 -19 26 -22z"/>
<path d="M1360 295 c0 -4 12 -22 28 -39 15 -17 34 -42 42 -54 10 -16 25 -24
48 -24 36 -1 54 15 50 46 -3 21 -11 25 -83 50 -80 27 -85 29 -85 21z m110 -81
c0 -8 -4 -14 -10 -14 -5 0 -10 9 -10 21 0 11 5 17 10 14 6 -3 10 -13 10 -21z
m40 6 c0 -11 -4 -20 -9 -20 -5 0 -11 9 -14 20 -3 13 0 20 9 20 8 0 14 -9 14
-20z"/>
<path d="M1730 255 c-74 -25 -90 -52 -47 -80 35 -23 67 -11 100 38 47 70 41
75 -53 42z m17 -40 c3 -9 3 -19 -1 -22 -7 -7 -36 16 -36 28 0 15 30 10 37 -6z
m-43 -11 c9 -22 8 -24 -9 -18 -8 4 -15 12 -15 20 0 19 16 18 24 -2z"/>
</g>
</svg>
